<?xml version="1.0" standalone="no"?>
<!DOCTYPE svg PUBLIC "-//W3C//DTD SVG 20010904//EN"
 "http://www.w3.org/TR/2001/REC-SVG-20010904/DTD/svg10.dtd">
<svg version="1.0" xmlns="http://www.w3.org/2000/svg"
 width="256.000000pt" height="256.000000pt" viewBox="0 0 256.000000 256.000000"
 preserveAspectRatio="xMidYMid meet">
<metadata>
Created by potrace 1.16, written by Peter Selinger 2001-2019
</metadata>
<g transform="translate(0.000000,256.000000) scale(0.100000,-0.100000)"
fill="#000000" stroke="none">
<path d="M1352 2164 c-12 -8 -32 -15 -45 -16 -66 -1 -76 -14 -92 -113 -6 -36
-12 -43 -71 -78 -81 -48 -84 -67 -10 -67 118 0 326 51 454 111 93 45 84 63
-33 68 -48 1 -64 6 -78 24 -79 95 -86 99 -125 71z"/>
<path d="M1452 1929 c-30 -10 -89 -26 -133 -35 -43 -10 -79 -22 -79 -27 0 -5
7 -21 16 -37 19 -32 13 -60 -13 -60 -10 -1 -33 -9 -52 -19 l-35 -18 -18 36
c-45 92 -185 100 -246 14 -25 -36 -45 -100 -38 -118 8 -21 30 -19 51 5 10 11
32 24 50 29 39 11 138 -6 132 -23 -3 -6 -10 -10 -17 -8 -72 17 -101 14 -139
-12 -22 -15 -48 -29 -58 -30 -11 -2 -22 -17 -29 -42 -7 -27 -17 -40 -31 -42
-35 -5 -51 -34 -72 -130 -23 -103 -18 -135 23 -153 13 -7 27 -22 30 -35 8 -30
45 -49 120 -63 49 -9 65 -8 89 4 38 19 37 19 37 -5 0 -41 28 -75 167 -196 116
-103 145 -133 152 -163 15 -58 58 -233 65 -263 4 -16 13 -28 20 -28 9 0 15
-15 18 -40 l4 -40 -191 -2 c-104 0 -214 -2 -242 -3 -43 -1 -54 2 -59 17 -3 10
-18 25 -33 33 -26 13 -41 39 -41 74 0 7 6 11 13 8 7 -2 68 48 135 112 114 107
125 121 147 181 l23 66 -87 76 -88 76 -22 -101 -22 -102 -101 -101 c-55 -56
-98 -106 -95 -111 3 -5 -14 -26 -38 -47 -25 -20 -45 -43 -45 -50 0 -17 42 -56
61 -56 8 0 27 -18 42 -40 l28 -40 -55 -1 c-31 -1 -60 -3 -66 -4 -5 -1 -22 -3
-37 -4 l-28 -2 25 -11 c35 -16 1145 -16 1180 -1 l25 12 -27 2 c-16 1 -32 3
-38 4 -5 1 -49 3 -97 5 l-88 2 57 20 c54 18 57 21 46 41 -15 30 -29 38 -55 32
-17 -4 -23 -1 -23 12 0 10 31 209 68 442 59 366 71 425 89 440 11 9 25 35 31
59 9 38 8 44 -10 56 -22 16 -21 34 9 133 18 57 9 83 -28 83 -24 0 -31 -13 -35
-74 -7 -87 -14 -116 -29 -116 -7 0 -24 -14 -36 -31 -12 -17 -24 -26 -28 -21
-4 6 -42 3 -106 -9 -54 -10 -102 -15 -106 -11 -3 4 -34 47 -69 95 -35 48 -74
97 -88 107 -37 30 -95 26 -133 -8 -28 -25 -34 -42 -63 -177 -18 -83 -32 -152
-30 -153 4 -5 89 54 130 90 29 25 32 34 27 61 -5 28 5 19 75 -64 56 -67 89
-98 108 -102 39 -7 266 45 273 64 3 8 13 14 21 14 11 0 14 -9 12 -30 -7 -61
-133 -839 -137 -843 -2 -2 -13 -1 -24 3 -16 5 -18 10 -10 23 8 13 2 60 -25
187 l-36 170 -89 130 -88 130 19 70 c10 38 17 78 14 90 -4 11 -23 39 -44 62
l-37 43 -67 -53 c-37 -28 -91 -65 -119 -81 -44 -25 -50 -26 -46 -10 3 11 20
87 37 169 38 183 44 197 87 235 27 24 43 30 79 30 60 0 93 -21 135 -84 42 -63
53 -40 17 34 -26 52 -22 80 11 80 23 0 68 42 81 75 12 31 13 102 3 108 -5 2
-32 -4 -61 -14z"/>
</g>
</svg>
